# xmcd CD database file
# Copyright (C) 1996 Ti Kan
#
# Track frame offsets:
#	150
#	14524
#	27541
#	41278
#	55953
#	69563
#	84428
#	99716
#	115475
#	129494
#	144163
#	158709
#	170715
#	182802
#	196146
#	208590
#	223705
#	239197
#	254706
#	266991
# Disc length: 3745 seconds
#
# Revision: 1
# Processed by: cddbd v1.5.2PL0 Copyright (c) Steve Scherf et al.
# Submitted via: CDCOPY 4.744
#
DISCID=350e9f14
DTITLE=Tableau d'honneur de la chanson française - 1940
DYEAR=1900
DGENRE=
TTITLE0=Edith Piaf-L'accordéoniste
TTITLE1=Charles Trénet-La romance de Paris
TTITLE2=Maurice Chevalier-Une brune, une blonde
TTITLE3=Marie-José-Impossible
TTITLE4=Annette Lajon-j'ai perdu d'avance
TTITLE5=Georgius-En vélo
TTITLE6=Fernandel-Hector
TTITLE7=Eva Busch-Je vous attendais
TTITLE8=Marie Bizet-L'hôtel des trois canards
TTITLE9=Jacques Pills-Mon ange
TTITLE10=André Dassary-Ma prière
TTITLE11=Léo Marjane-Sérénade portugaise
TTITLE12=Albert Préjean-Dédé de Montmartre
TTITLE13=Tino Rossi-Le danger de la valse
TTITLE14=Damia-Le vent m'a dit une chanson
TTITLE15=Joséphine Baker-Ô mon Tommy
TTITLE16=Jean Lumière-Le caravanier
TTITLE17=Rina Ketty-Pourvu qu'on chante
TTITLE18=Lucienne Delyle-Souris-moi et dis-moi bonne chance
TTITLE19=Danielle Darrieux-Une charade
EXTD=
EXTT0=
EXTT1=
EXTT2=
EXTT3=
EXTT4=
EXTT5=
EXTT6=
EXTT7=
EXTT8=
EXTT9=
EXTT10=
EXTT11=
EXTT12=
EXTT13=
EXTT14=
EXTT15=
EXTT16=
EXTT17=
EXTT18=
EXTT19=
PLAYORDER=
